<?xml version="1.0" encoding="UTF-8" standalone="no"?>
<svg xmlns:xlink="http://www.w3.org/1999/xlink" xmlns="http://www.w3.org/2000/svg" width="500" height="404">
 <defs>
  <path id="U" d="m 0,0 0,-23.52456 7.36985,0 0.0295,24.3205 c 0.19933,6.05928 4.68048,10.91014 10.19987,10.99581 5.68952,0 10.2883,-5.04097 10.2883,-10.99581 l 0,-24.3205 7.34037,0 0.0295,23.64247 c 0,10.78946 -7.84151,18.83733 -17.65815,18.83733 -9.81665,0 -17.5992,-8.66694 -17.5992,-18.95524 z"/>
  <path id="N" d="m 0,0 7.36985,0 0,-41.00584 -7.36985,0 0,28.09386 -21.1662,-28.09386 -7.39933,0 0,41.00584 7.39933,0 0,-27.56324 21.1662,27.56324 z"/>
  <path id="D" d="m 0,0 0,40.98489 14.85232,-0.0313 c 10.78945,10e-6 19.45843,-9.2074 19.45843,-20.58645 0,-11.2906 -8.45148,-20.36711 -19.27042,-20.36711 z m 14.78965,7.52017 c 6.78026,0 12.22027,5.80137 12.22027,12.84694 0,7.13402 -5.62801,12.87828 -12.40827,12.87828 l -7.14415,0.0313 0,-25.72523 z"/>
  <path id="R" d="m 0,0 0,40.98489 7.39483,0 0,-16.32502 4.4181,0 11.59358,16.32502 7.99018,0 -11.90693,-17.79772 c 3.97972,-2.06356 6.67415,-6.03458 6.67415,-10.81023 0,-6.80974 -5.53585,-12.37694 -12.3456,-12.37694 z m 7.48883,7.23816 6.32948,0.0313 c 2.83002,0 5.10744,2.27742 5.10744,5.10745 0,2.80054 -2.27741,5.07611 -5.10744,5.07611 l -6.32948,0 z"/>
 </defs>
 <circle id="ring" style="fill:none;stroke:#dc241f;stroke-width:70" cx="250" cy="202" r="167"/>
 <path id="bar" style="fill:none;stroke:#0019a8;stroke-width:77" d="m 0,202 h 500"/>
 <g fill="#fff">
  <use id="U1" xlink:href="#U" x="35.49319" y="204.96241"/>
  <use id="N1" xlink:href="#N" x="106.8628" y="222.44369"/>
  <use id="D1" xlink:href="#D" x="122.09454" y="181.44952"/>
  <path id="E" d="m 186.98779,222.44369 0,-8.22475 -17.48129,0 0,-9.5808 13.14782,0 0,-7.90049 -13.14782,0 0,-7.19296 16.95065,0 0,-8.10684 -24.32049,0 0,41.00584 24.85113,0 z"/>
  <use id="R1" xlink:href="#R" x="193.69276" y="181.51219"/>
  <path id="G" d="m 232.15022,200.77633 c 0,-10.05247 11.93915,-17.27493 27.56323,-9.22705 l 0,-8.04788 c -14.47439,-6.4265 -34.81516,-3.06585 -34.81516,17.5992 0,20.66506 22.19798,28.35918 35.31631,16.98014 l 0,-19.51536 -13.97323,0 0,7.07506 6.60338,0 0,9.07965 c -11.99811,4.86409 -20.69453,-2.68263 -20.69453,-13.94376 z"/>
  <use id="R2" xlink:href="#R" x="266.92036" y="181.51219"/>
  <path id="O" d="m 318.99749,180.54084 c -11.2906,0 -20.42978,9.60937 -20.42978,21.40113 10e-6,11.82123 9.13918,21.40113 20.42978,21.40113 11.2906,-10e-6 20.42978,-9.5799 20.42978,-21.40113 -1e-5,-11.79176 -9.13918,-21.40113 -20.42978,-21.40113 z m 0,8.08417 c 7.10453,0 12.84695,5.94712 12.84695,13.31696 0,7.39933 -5.74242,13.37962 -12.84695,13.37962 -7.07505,0 -12.81561,-5.98029 -12.81561,-13.37962 0,-7.36984 5.74056,-13.31696 12.81561,-13.31696 z"/>
  <use id="U2" xlink:href="#U" x="345.20369" y="204.96241"/>
  <use id="N2" xlink:href="#N" x="417.92936" y="222.44369"/>
  <use id="D2" xlink:href="#D" x="434.55736" y="181.44952"/>
 </g>
</svg>
